<svg width="25" height="25" viewBox="0 0 25 25" fill="none" xmlns="http://www.w3.org/2000/svg">
<path d="M13.9893 10.2783C13.4253 10.2783 12.9883 10.7153 12.9883 11.2549C12.9883 11.7944 13.4253 12.2314 13.9893 12.2314C14.5044 12.2314 14.9414 11.7944 14.9414 11.2549C14.9414 10.7153 14.5044 10.2783 13.9893 10.2783ZM7.15332 10.2783C6.58936 10.2783 6.15234 10.7153 6.15234 11.2549C6.15234 11.7944 6.58936 12.2314 7.15332 12.2314C7.66846 12.2314 8.10547 11.7944 8.10547 11.2549C8.10547 10.7153 7.66846 10.2783 7.15332 10.2783Z" fill="black"/>
<path d="M21.8258 8.42297C20.6515 6.81164 19.0109 5.73498 17.2116 5.24914V5.25158C16.7941 4.78771 16.3229 4.36047 15.7956 3.97961C11.799 1.07433 6.18864 1.96056 3.27116 5.95715C0.920084 9.20422 1.02018 13.5719 3.41764 16.6749L3.43717 19.9122C3.43717 19.9903 3.44938 20.0685 3.4738 20.1417C3.60319 20.5543 4.04264 20.7814 4.4528 20.652L7.54362 19.6779C8.36149 19.9684 9.20622 20.1344 10.0461 20.1808L10.0339 20.1905C12.2091 21.775 15.0607 22.2511 17.6755 21.3868L20.7785 22.3976C20.8566 22.422 20.9372 22.4366 21.0202 22.4366C21.4523 22.4366 21.8014 22.0875 21.8014 21.6554V18.3839C23.9523 15.464 24.0085 11.4283 21.8258 8.42297ZM7.88542 17.9445L7.59245 17.8224L5.17546 18.5792L5.15104 16.0402L4.95573 15.8204C2.8903 13.3009 2.75358 9.67053 4.68717 7.00695C7.04069 3.77941 11.5524 3.06652 14.7702 5.39562C17.9977 7.74181 18.7131 12.2462 16.3815 15.4542C14.4259 18.1373 10.925 19.1285 7.88542 17.9445ZM20.2145 17.5294L20.0192 17.7736L20.0436 20.3126L17.651 19.507L17.3581 19.629C15.9909 20.1368 14.5334 20.1783 13.1833 19.7999L13.1784 19.7975C14.9826 19.2433 16.6183 18.1202 17.7975 16.504C19.6628 13.9332 19.9655 10.7032 18.8815 7.94933L18.8962 7.9591C19.4577 8.36193 19.9728 8.86486 20.4098 9.47277C22.1823 11.9044 22.0822 15.215 20.2145 17.5294Z" fill="black"/>
<path d="M10.5713 10.2783C10.0073 10.2783 9.57031 10.7153 9.57031 11.2549C9.57031 11.7944 10.0073 12.2314 10.5713 12.2314C11.0864 12.2314 11.5234 11.7944 11.5234 11.2549C11.5234 10.7153 11.0864 10.2783 10.5713 10.2783Z" fill="black"/>
</svg>
